<svg xmlns="http://www.w3.org/2000/svg" width="1792" height="1792" viewBox="0 0 1792 1792"><path d="m 594,1412 q 0,80 -56,136 -56,56 -136,56 -80,0 -136,-56 -56,-56 -56,-136 0,-80 56,-136 56,-56 136,-56 80,0 136,56 56,56 56,136 z m 512,123 q 2,28 -17,48 -18,21 -47,21 l -135,0 q -25,0 -43,-16.5 Q 846,1571 844,1546 822,1317 659.5,1154.5 497,992 268,970 243,968 226.5,950 210,932 210,907 l 0,-135 q 0,-29 21,-47 17,-17 43,-17 l 5,0 q 160,13 306,80.5 146,67.5 259,181.5 114,113 181.5,259 67.5,146 80.5,306 z m 512,2 q 2,27 -18,47 -18,20 -46,20 l -143,0 q -26,0 -44.5,-17.5 Q 1348,1569 1347,1544 1335,1329 1246,1135.5 1157,942 1014.5,799.5 872,657 678.5,568 485,479 270,466 245,465 227.5,446.5 210,428 210,403 l 0,-143 q 0,-28 20,-46 18,-18 44,-18 l 3,0 q 262,13 501.5,120 239.5,107 425.5,294 187,186 294,425.5 107,239.5 120,501.5 z" style="fill:#000000"/></svg>
